<svg width="252" height="270" viewBox="0 0 252 270" fill="none" xmlns="http://www.w3.org/2000/svg">
<g filter="url(#filter0_f_1387_123)">
<path d="M217.546 156.144C217.546 187.141 176.906 212.269 126.773 212.269C76.6405 212.269 36 187.141 36 156.144C36 125.147 76.6405 121.38 126.773 121.38C176.906 121.38 217.546 125.147 217.546 156.144Z" fill="url(#paint0_linear_1387_123)"/>
</g>
<path d="M163.185 131.16C161.065 111.284 148.642 96.1665 125.999 96.1665C103.355 96.1665 89.6048 110.457 88.5021 130.593C87.3279 152.037 87.0571 156.982 86 176.285C86 191.197 104.356 203.285 127 203.285C149.644 203.285 168 191.197 168 176.285C165.867 156.299 165.593 153.723 163.185 131.16Z" fill="url(#paint1_linear_1387_123)"/>
<ellipse cx="127" cy="176.285" rx="41" ry="27" fill="#F3F3F3"/>
<g filter="url(#filter1_f_1387_123)">
<ellipse cx="128.605" cy="192.301" rx="5.8407" ry="10.1068" fill="black" fill-opacity="0.4"/>
</g>
<path d="M129.384 196.18C131.038 196.18 132.393 194.857 132.393 193.21C132.393 191.562 131.038 190.239 129.384 190.239C127.729 190.239 126.375 191.562 126.375 193.21C126.375 194.857 127.729 196.18 129.384 196.18Z" fill="#D9D9D9" stroke="black"/>
<g opacity="0.75">
<g filter="url(#filter2_f_1387_123)">
<path d="M127.482 226.926L110.541 192.525H144.423L127.482 226.926Z" fill="url(#paint2_radial_1387_123)"/>
</g>
<g filter="url(#filter3_f_1387_123)">
<path d="M127.482 226.926L116.423 196.657H138.54L127.482 226.926Z" fill="url(#paint3_radial_1387_123)"/>
</g>
<g filter="url(#filter4_f_1387_123)">
<path d="M127.482 226.926L122.086 204.427H132.878L127.482 226.926Z" fill="url(#paint4_radial_1387_123)"/>
</g>
</g>
<path d="M117.816 193.69H125.159L121.933 194.513V210.023H133.737V198.219" stroke="#D9D9D9"/>
<line x1="121.289" y1="198.038" x2="135.369" y2="198.038" stroke="#D9D9D9"/>
<path d="M125.605 202.408L123.415 204.754L125.214 215.705L125.539 219.382L124.539 219.851L124.197 225.718L125.214 227.908H129.907L130.885 225.718L130.628 219.851L129.676 219.382L129.907 215.705L131.55 204.754L129.516 202.408H125.605Z" fill="#333333"/>
<defs>
<filter id="filter0_f_1387_123" x="4" y="89.3796" width="245.546" height="154.889" filterUnits="userSpaceOnUse" color-interpolation-filters="sRGB">
<feFlood flood-opacity="0" result="BackgroundImageFix"/>
<feBlend mode="normal" in="SourceGraphic" in2="BackgroundImageFix" result="shape"/>
<feGaussianBlur stdDeviation="16" result="effect1_foregroundBlur_1387_123"/>
</filter>
<filter id="filter1_f_1387_123" x="114.764" y="174.194" width="27.6814" height="36.2136" filterUnits="userSpaceOnUse" color-interpolation-filters="sRGB">
<feFlood flood-opacity="0" result="BackgroundImageFix"/>
<feBlend mode="normal" in="SourceGraphic" in2="BackgroundImageFix" result="shape"/>
<feGaussianBlur stdDeviation="4" result="effect1_foregroundBlur_1387_123"/>
</filter>
<filter id="filter2_f_1387_123" x="102.541" y="184.525" width="49.8818" height="50.4015" filterUnits="userSpaceOnUse" color-interpolation-filters="sRGB">
<feFlood flood-opacity="0" result="BackgroundImageFix"/>
<feBlend mode="normal" in="SourceGraphic" in2="BackgroundImageFix" result="shape"/>
<feGaussianBlur stdDeviation="4" result="effect1_foregroundBlur_1387_123"/>
</filter>
<filter id="filter3_f_1387_123" x="112.423" y="192.657" width="30.1169" height="38.2695" filterUnits="userSpaceOnUse" color-interpolation-filters="sRGB">
<feFlood flood-opacity="0" result="BackgroundImageFix"/>
<feBlend mode="normal" in="SourceGraphic" in2="BackgroundImageFix" result="shape"/>
<feGaussianBlur stdDeviation="2" result="effect1_foregroundBlur_1387_123"/>
</filter>
<filter id="filter4_f_1387_123" x="121.086" y="203.427" width="12.7922" height="24.4989" filterUnits="userSpaceOnUse" color-interpolation-filters="sRGB">
<feFlood flood-opacity="0" result="BackgroundImageFix"/>
<feBlend mode="normal" in="SourceGraphic" in2="BackgroundImageFix" result="shape"/>
<feGaussianBlur stdDeviation="0.5" result="effect1_foregroundBlur_1387_123"/>
</filter>
<linearGradient id="paint0_linear_1387_123" x1="126.773" y1="121.38" x2="126.773" y2="212.269" gradientUnits="userSpaceOnUse">
<stop stop-opacity="0.36"/>
<stop offset="0.536458" stop-opacity="0"/>
</linearGradient>
<linearGradient id="paint1_linear_1387_123" x1="166.147" y1="153.7" x2="85.8571" y2="156.533" gradientUnits="userSpaceOnUse">
<stop stop-color="#EAEAEA"/>
<stop offset="0.114583" stop-color="#9E9E9E"/>
<stop offset="0.395833" stop-color="#D9D9D9"/>
<stop offset="0.395933" stop-color="#BBBBBB"/>
<stop offset="0.859375" stop-color="#7D7D7D"/>
<stop offset="1" stop-color="#C7C7C7"/>
</linearGradient>
<radialGradient id="paint2_radial_1387_123" cx="0" cy="0" r="1" gradientUnits="userSpaceOnUse" gradientTransform="translate(127.482 224.71) rotate(-90) scale(43.6522 74.4648)">
<stop/>
<stop offset="0.708333" stop-opacity="0"/>
</radialGradient>
<radialGradient id="paint3_radial_1387_123" cx="0" cy="0" r="1" gradientUnits="userSpaceOnUse" gradientTransform="translate(127.482 224.976) rotate(-90) scale(38.4092 48.6084)">
<stop/>
<stop offset="0.708333" stop-opacity="0"/>
</radialGradient>
<radialGradient id="paint4_radial_1387_123" cx="0" cy="0" r="1" gradientUnits="userSpaceOnUse" gradientTransform="translate(127.482 225.477) rotate(-90) scale(28.549 23.7191)">
<stop/>
<stop offset="0.708333" stop-opacity="0"/>
</radialGradient>
</defs>
</svg>
