<svg width="110" height="270" viewBox="0 0 110 270" fill="none" xmlns="http://www.w3.org/2000/svg">
<g filter="url(#filter0_f_1388_15)">
<ellipse cx="56.5311" cy="85.7695" rx="28.5311" ry="18.913" fill="black" fill-opacity="0.2"/>
</g>
<path d="M56.0911 102.598C69.8289 103.426 81.4451 97.9466 82.826 90.2091C82.8858 89.8737 82.9264 89.534 82.9472 89.1904C83.4459 80.9212 72.2309 73.5167 57.8976 72.6521C43.5642 71.7874 31.5403 77.79 31.0415 86.0592C31.0312 86.2306 31.0259 86.4016 31.0255 86.5723C31.0089 94.6326 42.0548 101.751 56.0911 102.598Z" fill="url(#paint0_linear_1388_15)"/>
<path d="M56.0911 102.598C69.8289 103.426 81.4451 97.9466 82.826 90.2091C82.8858 89.8737 82.9264 89.534 82.9472 89.1904C83.4459 80.9212 72.2309 73.5167 57.8976 72.6521C43.5642 71.7874 31.5403 77.79 31.0415 86.0592C31.0312 86.2306 31.0259 86.4016 31.0255 86.5723C31.0089 94.6326 42.0548 101.751 56.0911 102.598Z" fill="url(#paint1_radial_1388_15)" fill-opacity="0.5"/>
<path d="M82.826 90.2091C81.4451 97.9466 69.8289 103.426 56.0911 102.598C42.0548 101.751 31.0089 94.6326 31.0255 86.5723L30.0198 118.817C29.4805 127.759 40.0233 135.67 53.5681 136.487C67.1129 137.304 78.5304 130.718 79.0697 121.776L82.826 90.2091Z" fill="url(#paint2_linear_1388_15)"/>
<path d="M82.826 90.2091C81.4451 97.9466 69.8289 103.426 56.0911 102.598C42.0548 101.751 31.0089 94.6326 31.0255 86.5723L30.0198 118.817C29.4805 127.759 40.0233 135.67 53.5681 136.487C67.1129 137.304 78.5304 130.718 79.0697 121.776L82.826 90.2091Z" fill="url(#paint3_radial_1388_15)" fill-opacity="0.5"/>
<ellipse cx="56.9942" cy="87.6248" rx="26" ry="15" transform="rotate(3.45218 56.9942 87.6248)" fill="url(#paint4_radial_1388_15)"/>
<defs>
<filter id="filter0_f_1388_15" x="4" y="42.8564" width="105.062" height="85.826" filterUnits="userSpaceOnUse" color-interpolation-filters="sRGB">
<feFlood flood-opacity="0" result="BackgroundImageFix"/>
<feBlend mode="normal" in="SourceGraphic" in2="BackgroundImageFix" result="shape"/>
<feGaussianBlur stdDeviation="12" result="effect1_foregroundBlur_1388_15"/>
</filter>
<linearGradient id="paint0_linear_1388_15" x1="80.3971" y1="112.119" x2="30.548" y2="108.631" gradientUnits="userSpaceOnUse">
<stop stop-color="white"/>
<stop offset="0.185" stop-color="#9E9E9E"/>
<stop offset="0.494792" stop-color="#D9D9D9"/>
<stop offset="0.885" stop-color="#7D7D7D"/>
<stop offset="1" stop-color="#CFCFCF"/>
</linearGradient>
<radialGradient id="paint1_radial_1388_15" cx="0" cy="0" r="1" gradientUnits="userSpaceOnUse" gradientTransform="translate(56.4815 38.9054) rotate(90) scale(97.6497 80.8278)">
<stop offset="0.604167"/>
<stop offset="1" stop-opacity="0"/>
</radialGradient>
<linearGradient id="paint2_linear_1388_15" x1="80.3971" y1="112.119" x2="30.548" y2="108.631" gradientUnits="userSpaceOnUse">
<stop stop-color="white"/>
<stop offset="0.185" stop-color="#9E9E9E"/>
<stop offset="0.494792" stop-color="#D9D9D9"/>
<stop offset="0.885" stop-color="#7D7D7D"/>
<stop offset="1" stop-color="#CFCFCF"/>
</linearGradient>
<radialGradient id="paint3_radial_1388_15" cx="0" cy="0" r="1" gradientUnits="userSpaceOnUse" gradientTransform="translate(56.4815 38.9054) rotate(90) scale(97.6497 80.8278)">
<stop offset="0.604167"/>
<stop offset="1" stop-opacity="0"/>
</radialGradient>
<radialGradient id="paint4_radial_1388_15" cx="0" cy="0" r="1" gradientUnits="userSpaceOnUse" gradientTransform="translate(74.4544 77.9372) rotate(158.729) scale(40.5628 38.6285)">
<stop stop-color="#C6C6C6"/>
<stop offset="0.963542" stop-color="white"/>
</radialGradient>
</defs>
</svg>
