<svg width="178" height="270" viewBox="0 0 178 270" fill="none" xmlns="http://www.w3.org/2000/svg">
<g clip-path="url(#clip0_1384_38)">
<g filter="url(#filter0_f_1384_38)">
<path d="M45.2826 114.393L34.6118 75.2669L50.7797 71.0632L79.5587 108.573L112.865 114.393L149.081 130.885L115.775 152.55L144.554 180.035L88.2893 184.562L54.0133 180.035L57.8936 155.46L12.3 152.55V130.885L45.2826 114.393Z" fill="black" fill-opacity="0.1"/>
</g>
<g opacity="0.25">
<g filter="url(#filter1_f_1384_38)">
<path d="M58.6246 224.378L41.6838 189.976H75.5655L58.6246 224.378Z" fill="url(#paint0_radial_1384_38)"/>
</g>
<g filter="url(#filter2_f_1384_38)">
<path d="M58.6242 224.378L47.5657 194.108H69.6827L58.6242 224.378Z" fill="url(#paint1_radial_1384_38)"/>
</g>
<g filter="url(#filter3_f_1384_38)">
<path d="M58.6245 224.378L53.2284 201.879H64.0207L58.6245 224.378Z" fill="url(#paint2_radial_1384_38)"/>
</g>
</g>
<g opacity="0.25">
<g filter="url(#filter4_f_1384_38)">
<path d="M50.8759 189.659L41.7366 171.763H60.0151L50.8759 189.659Z" fill="url(#paint3_radial_1384_38)"/>
</g>
<g filter="url(#filter5_f_1384_38)">
<path d="M50.8757 189.659L44.9098 173.913H56.8415L50.8757 189.659Z" fill="url(#paint4_radial_1384_38)"/>
</g>
<g filter="url(#filter6_f_1384_38)">
<path d="M50.8756 189.659L47.9645 177.955H53.7867L50.8756 189.659Z" fill="url(#paint5_radial_1384_38)"/>
</g>
</g>
<g opacity="0.25">
<g filter="url(#filter7_f_1384_38)">
<path d="M97.5004 198.538L88.3611 180.642H106.64L97.5004 198.538Z" fill="url(#paint6_radial_1384_38)"/>
</g>
<g filter="url(#filter8_f_1384_38)">
<path d="M97.5002 198.538L91.5343 182.792H103.466L97.5002 198.538Z" fill="url(#paint7_radial_1384_38)"/>
</g>
<g filter="url(#filter9_f_1384_38)">
<path d="M97.5001 198.538L94.589 186.834H100.411L97.5001 198.538Z" fill="url(#paint8_radial_1384_38)"/>
</g>
</g>
<g filter="url(#filter10_f_1384_38)">
<ellipse cx="70.1499" cy="180.846" rx="10.2295" ry="14.0217" fill="black" fill-opacity="0.3"/>
</g>
<path d="M66.8823 196.212L62.96 170.639L66.8823 169.07L70.4909 194.8C70.4909 194.8 69.8931 195.878 69.2357 196.212C68.4168 196.63 66.8823 196.212 66.8823 196.212Z" fill="#D9D9D9"/>
<path d="M83.4737 131.031C83.5762 131.571 83.6594 132.105 83.7238 132.633C87.3848 162.663 30.3563 172.937 24.526 142.219C22.0544 129.197 33.2467 116.135 49.5246 113.046C65.8025 109.956 81.0021 118.008 83.4737 131.031Z" fill="url(#paint9_linear_1384_38)"/>
<path d="M83.4737 131.031C83.5762 131.571 83.6594 132.105 83.7238 132.633C87.3848 162.663 30.3563 172.937 24.526 142.219C22.0544 129.197 33.2467 116.135 49.5246 113.046C65.8025 109.956 81.0021 118.008 83.4737 131.031Z" fill="url(#paint10_radial_1384_38)" fill-opacity="0.5"/>
<path d="M60.4391 172.775C76.717 169.686 87.9037 156.595 85.4252 143.537L83.7238 132.633C87.3848 162.663 30.3563 172.937 24.526 142.219L26.4775 154.725C28.956 167.784 44.1611 175.865 60.4391 172.775Z" fill="url(#paint11_linear_1384_38)"/>
<path d="M60.4391 172.775C76.717 169.686 87.9037 156.595 85.4252 143.537L83.7238 132.633C87.3848 162.663 30.3563 172.937 24.526 142.219L26.4775 154.725C28.956 167.784 44.1611 175.865 60.4391 172.775Z" fill="url(#paint12_radial_1384_38)" fill-opacity="0.5"/>
<g filter="url(#filter11_dii_1384_38)">
<ellipse cx="53.9999" cy="136.625" rx="30" ry="24" transform="rotate(-10.7468 53.9999 136.625)" fill="white"/>
</g>
<line x1="69.763" y1="197.235" x2="77.0757" y2="188.301" stroke="#666666"/>
<line x1="68.5403" y1="196.738" x2="63.7278" y2="196.24" stroke="#666666"/>
<line x1="69.2206" y1="197.074" x2="62.851" y2="185.353" stroke="#666666"/>
<path d="M51.7359 184.739C52.1157 184.654 52.7325 184.739 52.7325 184.739L53.003 188.114L52.0775 188.242C52.0775 188.242 51.218 188.388 50.7961 188.114C50.504 187.924 50.3903 187.731 50.2408 187.416C50.0362 186.986 49.9711 186.669 50.0843 186.206C50.199 185.737 50.4215 185.5 50.7961 185.195C51.1126 184.938 51.3379 184.829 51.7359 184.739Z" fill="#333333"/>
<path d="M62.6184 183.765L65.5911 183.515L65.7301 185.154L62.4517 186.376H61.7849H61.0349L60.0901 187.321L55.867 187.571L55.3392 187.126L53.9779 187.321L53.3945 187.71C53.3945 187.71 52.5082 186.996 52.5332 186.376C52.5568 185.793 53.3945 185.154 53.3945 185.154L53.9779 186.098L55.3392 185.876L55.867 185.57L57.3398 184.181L60.4793 184.042L61.0349 184.431H61.7849L62.6184 183.765Z" stroke="#D9D9D9"/>
<path d="M98.3617 193.249H96.139L94.4976 195.194L95.5582 196.381L96.4927 196.861H97.6797C97.6797 196.861 98.5832 196.936 99.0182 196.633C99.3728 196.386 99.5342 196.141 99.6496 195.724C99.7821 195.245 99.6881 194.92 99.498 194.461C99.2497 193.862 98.3617 193.249 98.3617 193.249Z" fill="#333333"/>
<path d="M73.4883 184.786L68.8208 184.562L72.1814 188.221L75.6915 187.661L76.8117 188.221L80.135 190.088L88.9847 193.935L91.7106 193.561L94.1004 194.756C94.1004 194.756 94.9071 194.593 95.1459 194.196C95.3865 193.796 95.1459 193.001 95.1459 193.001L92.5321 192.03L90.6651 190.275L81.1432 187.101H77.5585L76.513 186.69L73.4883 184.786Z" stroke="#D9D9D9"/>
<path d="M64.1614 190.69L66.7447 187.28V191.231L65.7212 195.528L64.6342 196.994L64.4067 199.143L64.8404 201.703L62.5867 215.321L60.9436 216.838L60.4127 219.037L59.6417 219.29L59.0601 218.585L59.6417 216.452L58.5432 213.932L61.9938 199.812L63.3364 198.853L63.624 196.839L63.3364 195.241L64.1614 190.69Z" stroke="#D9D9D9"/>
<path d="M56.8333 222.626L58.6297 219.588L60.6444 219.974V224.322C60.6444 224.322 60.3718 225.009 60.0232 225.296C59.6751 225.582 59.3973 225.674 58.9488 225.715C58.4828 225.759 58.1821 225.709 57.7736 225.48C57.3727 225.256 57.2091 225.015 56.9677 224.624L56.9666 224.622C56.7803 224.321 56.666 224.136 56.615 223.785C56.5488 223.329 56.8333 222.626 56.8333 222.626Z" fill="#333333"/>
</g>
<defs>
<filter id="filter0_f_1384_38" x="-3.69995" y="55.0632" width="168.781" height="145.499" filterUnits="userSpaceOnUse" color-interpolation-filters="sRGB">
<feFlood flood-opacity="0" result="BackgroundImageFix"/>
<feBlend mode="normal" in="SourceGraphic" in2="BackgroundImageFix" result="shape"/>
<feGaussianBlur stdDeviation="8" result="effect1_foregroundBlur_1384_38"/>
</filter>
<filter id="filter1_f_1384_38" x="37.6837" y="185.976" width="41.8818" height="42.4015" filterUnits="userSpaceOnUse" color-interpolation-filters="sRGB">
<feFlood flood-opacity="0" result="BackgroundImageFix"/>
<feBlend mode="normal" in="SourceGraphic" in2="BackgroundImageFix" result="shape"/>
<feGaussianBlur stdDeviation="2" result="effect1_foregroundBlur_1384_38"/>
</filter>
<filter id="filter2_f_1384_38" x="45.5657" y="192.108" width="26.1169" height="34.2695" filterUnits="userSpaceOnUse" color-interpolation-filters="sRGB">
<feFlood flood-opacity="0" result="BackgroundImageFix"/>
<feBlend mode="normal" in="SourceGraphic" in2="BackgroundImageFix" result="shape"/>
<feGaussianBlur stdDeviation="1" result="effect1_foregroundBlur_1384_38"/>
</filter>
<filter id="filter3_f_1384_38" x="52.2284" y="200.879" width="12.7922" height="24.4989" filterUnits="userSpaceOnUse" color-interpolation-filters="sRGB">
<feFlood flood-opacity="0" result="BackgroundImageFix"/>
<feBlend mode="normal" in="SourceGraphic" in2="BackgroundImageFix" result="shape"/>
<feGaussianBlur stdDeviation="0.5" result="effect1_foregroundBlur_1384_38"/>
</filter>
<filter id="filter4_f_1384_38" x="37.7366" y="167.763" width="26.2786" height="25.8959" filterUnits="userSpaceOnUse" color-interpolation-filters="sRGB">
<feFlood flood-opacity="0" result="BackgroundImageFix"/>
<feBlend mode="normal" in="SourceGraphic" in2="BackgroundImageFix" result="shape"/>
<feGaussianBlur stdDeviation="2" result="effect1_foregroundBlur_1384_38"/>
</filter>
<filter id="filter5_f_1384_38" x="42.9098" y="171.913" width="15.9316" height="19.7465" filterUnits="userSpaceOnUse" color-interpolation-filters="sRGB">
<feFlood flood-opacity="0" result="BackgroundImageFix"/>
<feBlend mode="normal" in="SourceGraphic" in2="BackgroundImageFix" result="shape"/>
<feGaussianBlur stdDeviation="1" result="effect1_foregroundBlur_1384_38"/>
</filter>
<filter id="filter6_f_1384_38" x="46.9645" y="176.955" width="7.82227" height="13.7041" filterUnits="userSpaceOnUse" color-interpolation-filters="sRGB">
<feFlood flood-opacity="0" result="BackgroundImageFix"/>
<feBlend mode="normal" in="SourceGraphic" in2="BackgroundImageFix" result="shape"/>
<feGaussianBlur stdDeviation="0.5" result="effect1_foregroundBlur_1384_38"/>
</filter>
<filter id="filter7_f_1384_38" x="84.3611" y="176.642" width="26.2786" height="25.8959" filterUnits="userSpaceOnUse" color-interpolation-filters="sRGB">
<feFlood flood-opacity="0" result="BackgroundImageFix"/>
<feBlend mode="normal" in="SourceGraphic" in2="BackgroundImageFix" result="shape"/>
<feGaussianBlur stdDeviation="2" result="effect1_foregroundBlur_1384_38"/>
</filter>
<filter id="filter8_f_1384_38" x="89.5343" y="180.792" width="15.9316" height="19.7465" filterUnits="userSpaceOnUse" color-interpolation-filters="sRGB">
<feFlood flood-opacity="0" result="BackgroundImageFix"/>
<feBlend mode="normal" in="SourceGraphic" in2="BackgroundImageFix" result="shape"/>
<feGaussianBlur stdDeviation="1" result="effect1_foregroundBlur_1384_38"/>
</filter>
<filter id="filter9_f_1384_38" x="93.589" y="185.834" width="7.82227" height="13.7041" filterUnits="userSpaceOnUse" color-interpolation-filters="sRGB">
<feFlood flood-opacity="0" result="BackgroundImageFix"/>
<feBlend mode="normal" in="SourceGraphic" in2="BackgroundImageFix" result="shape"/>
<feGaussianBlur stdDeviation="0.5" result="effect1_foregroundBlur_1384_38"/>
</filter>
<filter id="filter10_f_1384_38" x="47.9204" y="154.824" width="44.459" height="52.0435" filterUnits="userSpaceOnUse" color-interpolation-filters="sRGB">
<feFlood flood-opacity="0" result="BackgroundImageFix"/>
<feBlend mode="normal" in="SourceGraphic" in2="BackgroundImageFix" result="shape"/>
<feGaussianBlur stdDeviation="6" result="effect1_foregroundBlur_1384_38"/>
</filter>
<filter id="filter11_dii_1384_38" x="8.18408" y="96.3857" width="91.6316" height="80.478" filterUnits="userSpaceOnUse" color-interpolation-filters="sRGB">
<feFlood flood-opacity="0" result="BackgroundImageFix"/>
<feColorMatrix in="SourceAlpha" type="matrix" values="0 0 0 0 0 0 0 0 0 0 0 0 0 0 0 0 0 0 127 0" result="hardAlpha"/>
<feOffset/>
<feGaussianBlur stdDeviation="8"/>
<feComposite in2="hardAlpha" operator="out"/>
<feColorMatrix type="matrix" values="0 0 0 0 1 0 0 0 0 0.78 0 0 0 0 0 0 0 0 1 0"/>
<feBlend mode="normal" in2="BackgroundImageFix" result="effect1_dropShadow_1384_38"/>
<feBlend mode="normal" in="SourceGraphic" in2="effect1_dropShadow_1384_38" result="shape"/>
<feColorMatrix in="SourceAlpha" type="matrix" values="0 0 0 0 0 0 0 0 0 0 0 0 0 0 0 0 0 0 127 0" result="hardAlpha"/>
<feOffset/>
<feGaussianBlur stdDeviation="16"/>
<feComposite in2="hardAlpha" operator="arithmetic" k2="-1" k3="1"/>
<feColorMatrix type="matrix" values="0 0 0 0 1 0 0 0 0 0.78 0 0 0 0 0 0 0 0 1 0"/>
<feBlend mode="normal" in2="shape" result="effect2_innerShadow_1384_38"/>
<feColorMatrix in="SourceAlpha" type="matrix" values="0 0 0 0 0 0 0 0 0 0 0 0 0 0 0 0 0 0 127 0" result="hardAlpha"/>
<feMorphology radius="2" operator="erode" in="SourceAlpha" result="effect3_innerShadow_1384_38"/>
<feOffset/>
<feComposite in2="hardAlpha" operator="arithmetic" k2="-1" k3="1"/>
<feColorMatrix type="matrix" values="0 0 0 0 1 0 0 0 0 0.910667 0 0 0 0 0.441667 0 0 0 1 0"/>
<feBlend mode="normal" in2="effect2_innerShadow_1384_38" result="effect3_innerShadow_1384_38"/>
</filter>
<radialGradient id="paint0_radial_1384_38" cx="0" cy="0" r="1" gradientUnits="userSpaceOnUse" gradientTransform="translate(58.6246 222.162) rotate(-90) scale(43.6522 74.4648)">
<stop/>
<stop offset="0.708333" stop-opacity="0"/>
</radialGradient>
<radialGradient id="paint1_radial_1384_38" cx="0" cy="0" r="1" gradientUnits="userSpaceOnUse" gradientTransform="translate(58.6242 222.428) rotate(-90) scale(38.4092 48.6084)">
<stop/>
<stop offset="0.708333" stop-opacity="0"/>
</radialGradient>
<radialGradient id="paint2_radial_1384_38" cx="0" cy="0" r="1" gradientUnits="userSpaceOnUse" gradientTransform="translate(58.6245 222.928) rotate(-90) scale(28.549 23.7191)">
<stop/>
<stop offset="0.708333" stop-opacity="0"/>
</radialGradient>
<radialGradient id="paint3_radial_1384_38" cx="0" cy="0" r="1" gradientUnits="userSpaceOnUse" gradientTransform="translate(50.8759 188.506) rotate(-90) scale(22.7082 40.1722)">
<stop/>
<stop offset="0.708333" stop-opacity="0"/>
</radialGradient>
<radialGradient id="paint4_radial_1384_38" cx="0" cy="0" r="1" gradientUnits="userSpaceOnUse" gradientTransform="translate(50.8757 188.645) rotate(-90) scale(19.9807 26.2232)">
<stop/>
<stop offset="0.708333" stop-opacity="0"/>
</radialGradient>
<radialGradient id="paint5_radial_1384_38" cx="0" cy="0" r="1" gradientUnits="userSpaceOnUse" gradientTransform="translate(50.8756 188.905) rotate(-90) scale(14.8514 12.796)">
<stop/>
<stop offset="0.708333" stop-opacity="0"/>
</radialGradient>
<radialGradient id="paint6_radial_1384_38" cx="0" cy="0" r="1" gradientUnits="userSpaceOnUse" gradientTransform="translate(97.5004 197.385) rotate(-90) scale(22.7082 40.1722)">
<stop/>
<stop offset="0.708333" stop-opacity="0"/>
</radialGradient>
<radialGradient id="paint7_radial_1384_38" cx="0" cy="0" r="1" gradientUnits="userSpaceOnUse" gradientTransform="translate(97.5002 197.523) rotate(-90) scale(19.9807 26.2232)">
<stop/>
<stop offset="0.708333" stop-opacity="0"/>
</radialGradient>
<radialGradient id="paint8_radial_1384_38" cx="0" cy="0" r="1" gradientUnits="userSpaceOnUse" gradientTransform="translate(97.5001 197.784) rotate(-90) scale(14.8514 12.796)">
<stop/>
<stop offset="0.708333" stop-opacity="0"/>
</radialGradient>
<linearGradient id="paint9_linear_1384_38" x1="83.8271" y1="143.304" x2="25.0611" y2="149.188" gradientUnits="userSpaceOnUse">
<stop stop-color="#D9D9D9"/>
<stop offset="0.0364583" stop-color="#9E9E9E"/>
<stop offset="0.494792" stop-color="#D9D9D9"/>
<stop offset="0.78125" stop-color="#7D7D7D"/>
<stop offset="1" stop-color="#FAFAFA"/>
</linearGradient>
<radialGradient id="paint10_radial_1384_38" cx="0" cy="0" r="1" gradientUnits="userSpaceOnUse" gradientTransform="translate(51.7738 132.124) rotate(85.5667) scale(41.4334 41.7979)">
<stop offset="0.703125" stop-opacity="0"/>
<stop offset="1"/>
</radialGradient>
<linearGradient id="paint11_linear_1384_38" x1="83.8271" y1="143.304" x2="25.0611" y2="149.188" gradientUnits="userSpaceOnUse">
<stop stop-color="#D9D9D9"/>
<stop offset="0.0364583" stop-color="#9E9E9E"/>
<stop offset="0.494792" stop-color="#D9D9D9"/>
<stop offset="0.78125" stop-color="#7D7D7D"/>
<stop offset="1" stop-color="#FAFAFA"/>
</linearGradient>
<radialGradient id="paint12_radial_1384_38" cx="0" cy="0" r="1" gradientUnits="userSpaceOnUse" gradientTransform="translate(51.7738 132.124) rotate(85.5667) scale(41.4334 41.7979)">
<stop offset="0.703125" stop-opacity="0"/>
<stop offset="1"/>
</radialGradient>
<clipPath id="clip0_1384_38">
<rect width="178" height="270" fill="white"/>
</clipPath>
</defs>
</svg>
